<svg width="17" height="16" viewBox="0 0 17 16" fill="none" xmlns="http://www.w3.org/2000/svg">
<path d="M7.37187 4.36917C6.97521 4.19146 6.54787 4 5.83333 4C3.16667 4 2.50002 6.6668 2.5 9.33333C2.49998 11.9999 4.5 15.3333 5.83333 15.3333C6.61438 15.3333 7.16667 15.1046 7.6242 14.9151C7.94773 14.7811 8.22387 14.6667 8.5 14.6667C8.77613 14.6667 9.05227 14.7811 9.3758 14.9151C9.83333 15.1046 10.3856 15.3333 11.1667 15.3333C12.1185 15.3333 13.4101 13.6347 14.0713 11.6925C14.1378 11.4969 14.002 11.2951 13.8025 11.2412C12.6681 10.9346 11.8333 9.89813 11.8333 8.66667C11.8333 7.50467 12.5766 6.5162 13.6137 6.15085C13.8106 6.08145 13.9321 5.86579 13.8393 5.67871C13.34 4.67203 12.5053 4 11.1667 4C10.4521 4 10.0248 4.19146 9.62813 4.36917C9.2846 4.52307 8.96413 4.66667 8.5 4.66667C8.03587 4.66667 7.7154 4.52307 7.37187 4.36917Z" fill="#FFFFFF"/>
<path d="M10.6331 1.20057C10.4828 2.01096 9.84398 2.64982 9.03358 2.80008C9.18384 1.98969 9.82269 1.35083 10.6331 1.20057Z" fill="#FFFFFF" stroke="#FFFFFF"/>
</svg>
